PathFileType	4	(X/Y/Z)	C:/Users/opensim2020/Desktop/walking_exp_matlab/subject01_walking12_straight_02.trc																																																																																																																																		
DataRate	CameraRate	NumFrames	NumMarkers	Units	OrigDataRate	OrigDataStartFrame	OrigNumFrames																																																																																																																														
100	100	4	44	mm	100	1247	122																																																																																																																														
Frame#	Time	LFHD			RFHD			LBHD			RBHD			C7			T10			CLAV			STRN			RBAK			LSHO			LUPA			LELB			LFRM			LWRA			LWRB			LFIN			RSHO			RUPA			RELB			RFRM			RWRA			RWRB			RFIN			LASI			RASI			LPSI			RPSI			LTHI			LKNE			LTIB			LANK			LHEE			LTOE			RTHI			RKNE			RTIB			RANK			RHEE			RTOE			*39			*40			*41			*42			*43		
		X1	Y1	Z1	X2	Y2	Z2	X3	Y3	Z3	X4	Y4	Z4	X5	Y5	Z5	X6	Y6	Z6	X7	Y7	Z7	X8	Y8	Z8	X9	Y9	Z9	X10	Y10	Z10	X11	Y11	Z11	X12	Y12	Z12	X13	Y13	Z13	X14	Y14	Z14	X15	Y15	Z15	X16	Y16	Z16	X17	Y17	Z17	X18	Y18	Z18	X19	Y19	Z19	X20	Y20	Z20	X21	Y21	Z21	X22	Y22	Z22	X23	Y23	Z23	X24	Y24	Z24	X25	Y25	Z25	X26	Y26	Z26	X27	Y27	Z27	X28	Y28	Z28	X29	Y29	Z29	X30	Y30	Z30	X31	Y31	Z31	X32	Y32	Z32	X33	Y33	Z33	X34	Y34	Z34	X35	Y35	Z35	X36	Y36	Z36	X37	Y37	Z37	X38	Y38	Z38	X39	Y39	Z39	X40	Y40	Z40	X41	Y41	Z41	X42	Y42	Z42	X43	Y43	Z43	X44	Y44	Z44
																																																																																																																																					
1	0	-949.57611	1656.56384	-1502.31812	-927.60101	1665.31689	-1391.69189	-1063.28589	1609.95447	-1483.60693	-1044.17847	1618.13635	-1366.18835	-1099.29053	1421.23938	-1436.93604	-1136.92224	1127.5614	-1420.15027	-957.69287	1349.99438	-1440.60767	-913.24561	1196.83032	-1442.03796	-1154.90137	1228.69519	-1351.89844	-1023.70612	1375.21155	-1600.52258	-1073.15125	1190.12488	-1674.9021	-1103.40967	1044.44495	-1665.04675	-1089.83936	932.24066	-1687.7052	-1038.66479	801.74554	-1669.21008	-1094.72656	809.87665	-1691.03882	-1067.93469	727.94196	-1695.99561	-1014.13489	1381.87256	-1287.54871	-1065.802	1185.72815	-1178.09424	-1056.25427	1058.07019	-1167.2085	-981.17828	956.29626	-1153.31165	-866.20648	885.66785	-1198.32813	-897.23755	867.01642	-1152.56519	-831.15582	816.81464	-1165.10413	-954.14636	926.12183	-1527.77466	-963.99323	915.00214	-1312.07458	-1143.41992	935.8689	-1486.00354	-1147.05042	937.96271	-1341.31641	-904.24542	610.45642	-1582.75354	-878.54547	479.10226	-1560.59985	-904.16412	291.0546	-1576.87036	-920.81995	74.58101	-1525.93481	-966.2962	45.13723	-1474.16016	-773.58429	38.59333	-1531.06177	-1061.31409	586.18475	-1252.01233	-1089.08655	428.10605	-1267.70276	-1240.39233	335.14651	-1269.47424	-1393.4375	192.11169	-1311.73267	-1440.18274	215.40756	-1363.52319	-1368.75378	49.98507	-1343.83984	-941.5777	1697.93958	-1413.75513	-1973.10425	1023.83691	3101.88354	-2012.51599	1022.10211	3140.71021	NaN	NaN	NaN	NaN	NaN	NaN
2	0.01	-937.69147	1657.10437	-1504.99683	-916.05487	1666.15735	-1394.37732	-1051.65918	1610.70715	-1486.60852	-1032.68433	1619.1261	-1369.11926	-1087.64343	1422.00305	-1439.39502	-1124.87268	1128.1062	-1422.5354	-945.81189	1350.88184	-1442.64014	-903.24408	1197.29089	-1444.07825	-1143.69275	1229.75439	-1353.78748	-1011.62292	1375.98816	-1602.63684	-1058.67444	1190.63257	-1677.54956	-1087.17529	1044.45984	-1668.27393	-1072.13013	932.58008	-1691.30237	-1019.44482	802.59753	-1672.99744	-1075.64417	810.29584	-1695.18127	-1047.35107	728.70721	-1700.23071	-1002.85455	1382.64978	-1289.87134	-1054.80261	1186.47888	-1180.36609	-1046.27832	1058.83862	-1170.10461	-973.01263	955.75092	-1155.1842	-858.88379	882.75555	-1199.29907	-890.55371	864.83905	-1153.76782	-825.38031	813.28857	-1165.64526	-942.38129	926.86298	-1530.40967	-951.74231	915.8634	-1314.39832	-1131.43506	936.50555	-1487.97107	-1134.78967	937.72821	-1343.08594	-894.73975	609.58954	-1584.56604	-870.38489	478.12152	-1562.34729	-899.61908	290.82288	-1576.97253	-920.47931	74.7234	-1525.85718	-966.2337	45.32942	-1474.23889	-773.26434	38.26058	-1530.96448	-1041.67004	584.55658	-1253.20996	-1065.2937	426.28625	-1268.5979	-1218.39075	337.10742	-1268.89502	-1375.20557	199.83698	-1311.23877	-1421.28735	226.20653	-1362.35266	-1360.95679	55.87274	-1343.00256	-929.95026	1698.73413	-1416.70947	-1973.08618	1023.66492	3101.92236	-2012.52832	1022.12543	3140.69458	NaN	NaN	NaN	NaN	NaN	NaN
3	0.02	-925.80499	1657.72363	-1507.63928	-904.41071	1667.11621	-1397.01978	-1039.93079	1611.54187	-1489.37402	-1021.11169	1620.2887	-1371.85071	-1075.87	1422.75366	-1441.55322	-1113.10925	1128.79028	-1424.93701	-934.1521	1351.84045	-1444.49561	-891.53223	1198.09338	-1445.68896	-1131.92053	1230.5625	-1355.68713	-999.58051	1376.86182	-1604.53772	-1044.2865	1191.31128	-1680.07275	-1071.04065	1044.70068	-1671.57397	-1054.23303	933.12048	-1694.92969	-999.78638	803.83209	-1676.83582	-1056.03918	810.89777	-1699.27209	-1026.58948	729.64392	-1704.80225	-991.25073	1383.50513	-1291.77954	-1043.61243	1187.30725	-1182.33105	-1036.34277	1059.53137	-1172.90881	-964.79822	955.04199	-1157.24536	-851.6947	879.72803	-1200.01526	-884.26184	862.71942	-1155.11377	-820.17004	809.77289	-1166.27026	-930.85889	927.31702	-1532.79993	-939.68579	916.95294	-1316.60938	-1119.69482	937.11475	-1490.00671	-1123.0979	937.45752	-1344.90894	-887.00989	608.78796	-1586.30237	-863.24969	477.51352	-1564.047	-896.34979	290.79303	-1576.60669	-920.16608	74.88323	-1525.75525	-966.13062	45.48183	-1474.22729	-772.9704	37.91803	-1530.97375	-1021.888	583.10535	-1254.83191	-1041.32764	425.16205	-1269.7655	-1195.89551	339.21326	-1268.19592	-1355.95056	207.82074	-1311.2677	-1400.97363	236.25682	-1362.26855	-1349.16895	62.28069	-1340.79688	-918.12268	1699.76709	-1419.49597	-1973.05347	1023.45435	3101.95776	-2012.43469	1022.01178	3140.80396	NaN	NaN	NaN	NaN	NaN	NaN
4	0.03	-913.92474	1658.38318	-1510.14392	-892.58368	1668.10095	-1399.43469	-1028.06189	1612.44678	-1491.8042	-1009.57953	1621.59814	-1374.39722	-1064.24707	1423.62964	-1443.58118	-1101.57202	1129.64636	-1427.33044	-922.52643	1352.85962	-1446.17712	-879.82404	1199.06067	-1447.13757	-1120.24573	1231.40002	-1357.74292	-987.42657	1377.84619	-1606.32129	-1030.0293	1192.18811	-1682.65405	-1055.01025	1045.08679	-1674.81287	-1036.2821	933.82727	-1698.5238	-979.74994	805.39703	-1680.65015	-1035.92859	811.45898	-1702.99951	-1005.10797	731.18652	-1709.33813	-979.95135	1384.47583	-1293.50647	-1032.46216	1188.25232	-1184.09619	-1026.33704	1060.22278	-1175.61328	-956.97565	954.43353	-1159.06152	-844.9715	876.7121	-1200.87109	-878.09216	860.40247	-1156.18408	-815.0033	806.12488	-1167.04492	-919.49066	927.7738	-1534.95984	-928.1557	918.10181	-1318.45129	-1108.22522	937.67932	-1492.01074	-1111.73499	937.151	-1346.77612	-879.80975	607.92645	-1588.16211	-856.99884	476.89926	-1565.70447	-894.18201	290.53818	-1575.92139	-919.82959	74.84045	-1525.75256	-966.02533	45.63675	-1474.16675	-772.81708	37.8484	-1531.01782	-1002.12958	582.55994	-1256.5094	-1017.15137	424.79111	-1270.89966	-1172.82678	341.44135	-1267.70239	-1336.03894	215.41435	-1311.77856	-1379.67676	244.99643	-1363.59814	-1334.46204	68.82323	-1337.07178	-906.25763	1700.80713	-1422.12842	-1972.93201	1023.8299	3102.06421	-2012.46094	1021.99561	3140.66138	NaN	NaN	NaN	NaN	NaN	NaN
